<?xml version="1.0" encoding="UTF-8"?>
<svg id="Lag_1" data-name="Lag 1" xmlns="http://www.w3.org/2000/svg" viewBox="0 0 120.87 109.67">
  <defs>
    <style>
      .cls-1 {
        fill: #fff;
      }

      .cls-2 {
        fill: #ceccd6;
      }

      .cls-3 {
        fill: #ceccd7;
      }

      .cls-4 {
        fill: #524897;
      }

      .cls-5 {
        fill: none;
        stroke: #524897;
        stroke-miterlimit: 10;
      }
    </style>
  </defs>
  <path class="cls-3" d="M27.21,5.05l-13.29,2.25S-.5,14.97,.17,53.72C.17,53.72-3.88,26.46,27.21,5.05Z"/>
  <path class="cls-4" d="M70.56,.25s38.85,9.75,46.96,40.83,1.08,43.23-16.21,56.2c0,0-1.46,2.39-3.78,0l-.71-2.17s-5.79,2.79-7.04,1.54-1.46-2.15,.24-3.64c0,0,.61-1.01-.4-1.38,0,0-1.86,2.19-3.85-2.75,0,0-12.99,10.44-17,7.41,0,0-3.72-.28-3.4-2.91,0,0-.24-.93,4.82-.61,0,0-.53-1.38-.85-1.78,0,0-8.08,3.46-12.23-4.57,0,0,3.38-3.79,14.15,2.93,0,0,2.79,1.82,4.13,.49,0,0-1.34-1.86-1.94-3.81,0,0,1.85-1.71,10.73-1.42,0,0,17.14-4.79,15.14-17.61,0,0-4.13,10.08-9.74,12.34,0,0-6.28,3.03-6.82,.7s2.22-2.22,10.01-5.41c0,0,5.3-4.49,5.09-6.71,0,0-.49-1.73-1.14-.87s-2.98,5.68-4.92,4.71c0,0-2.87,.49-.97-1.73s11.2-13.05,9.09-13.4c0,0,2.27-9.22-3.68-19.5s-22.16-24.2-29.23-23.82c0,0,.82-3.2,3.58-13.05Z"/>
  <path class="cls-4" d="M95.79,98s-3.34,5.1-5.31,5.31-8.76,3.93-8.76,3.93c0,0-.74,3.13,1.8,1.91s7.34-2.64,8.17-4.88c0,0,4.94-4.17,4.09-6.26Z"/>
  <path class="cls-4" d="M84.32,100.18s-2.49,4.83-5.31,5.1c0,0-2.23,1.59-2.65-.85,0,0,6.69-1.43,7.96-4.25Z"/>
  <path class="cls-4" d="M86.88,92.43s-.06,4.03-2.98,4.19,2.14-4.09,2.98-4.19Z"/>
  <path class="cls-4" d="M80.98,97.1s-1.27,2.65-5.73,4.56c-4.46,1.91-7.54,2.12-9.4,1.06s.74-3.03,2.97-2.55,12.16-3.08,12.16-3.08Z"/>
  <path class="cls-4" d="M63.25,107.61s-3.03,.37-2.44-1.27,1.18-3.82,1.18-3.82c0,0,.67-2.18-4-.64-4.67,1.54-6.05,1.01-6.95,2.87s4.46,5.2,6.74,4.46c0,0,.11,.9,5.47-1.59Z"/>
  <path class="cls-4" d="M88.14,36.41c-5.52-11.24-24.68-17.53-24.68-17.53,0,0-11.39,5.04-16.68,7.88,.02,0,.03-.01,.05-.01,.16,0,.28,.06,.36,.16,.01,0,.02,.01,.04,.02,0,0,.01,0,.02,0,.11,0,.2,.04,.27,.09,0,0,0,0,0,0,.13,0,.22,.05,.3,.11,.07,0,.14,.02,.2,.06,.04,.01,.1,.02,.13,.04,0,0,.02,0,.03,0,0,0,0,0,0,0,.09,0,.17,.02,.23,.06,0,0,0,0,0,0,.09,0,.16,.02,.23,.06,.01,0,.02,0,.04,0,.08,0,.15,.02,.21,.05,.03,0,.05-.02,.07-.02,.07,0,.13,.02,.19,.04,.01,0,.03,0,.04,0,.05,0,.08,.02,.12,.02,0,0,0,0,0,0,.05,0,.08,.02,.12,.03,0,0,.01,0,.02,0,.01,0,.03,0,.04,0,0,0,.01,0,.02,0,.04,0,.07,.01,.11,.02,0,0,0,0,0,0,.02,0,.04,0,.06,.01,0,0,0,0,0,0,0,0,0,0,0,0,0,0,0,0,0,0,0,0,0,0,0,0,0,0,.02,0,.03,0,0,0-.02,0-.03,0,0,0,0,0,0,0,0,0,0,0,.01,0,.02,0,.04,0,.06,.01,0,0,.01,0,.02,0,.01,0,.02,0,.03,0,.02,0,.03,0,.05,0h.03s.04,0,.06,0c.02,0,.03,0,.04,0,0,0,0,0,0,0,0,0,.01,0,.02,0,.02,0,.04-.01,.07-.01s.05,.01,.07,.01c0,0,.01,0,.02,0,.05,0,.09,.02,.14,.03,0,0,0,0,0,0,.04,0,.07,.01,.1,.02,.03,0,.06,.01,.09,.02,.01,0,.02,0,.03,.01,.04,.01,.07,.01,.11,.04,.2,.12,.48,.1,.71,.16,.25,.07,.48,.19,.74,.24,.27,.06,.56,.03,.84,.07,.28,.04,.55,.14,.82,.2,.56,.11,1.14,.13,1.7,.21,.52,.07,1,.37,1.52,.41,.26,.02,.41,.2,.46,.4,5.13,1.36,9.93,6.8,11.35,7.51,1.74,.87,2.48,6.71,2.48,6.71,0,0-2.15,2.55-.76,4.43,1.39,1.88,5.25,.67,5.25,.67l1.06,2.48c-2.23,1.34-2.94,3.22-2.2,4.69,.74,1.48,2.62-4.22,3.08-3.89,.47,.34-1.61,4.74-1.61,4.74,0,0-5.7,4.31-4.09,5.58,1.61,1.27,4.43-3.35,4.43-3.35,2.88-3.96,2.62-9.12,2.62-9.12,4.76,7.18-7.64,15.96-7.64,15.96l1.07,2.01c-9.72,1.94-12.07,4.69-12.07,4.69,0,0,.94,3.15,4.43,1.81,1.75-.67,3.42-1.5,4.64-2.15-.07,.16-.12,.34-.15,.54-.2,1.68,1.48,.87,1.48,.87,.54,1.27,6.3-3.89,6.77-6.17,.47-2.28,2.48-1.81,2.48-1.81,2.28-1.74,5.9-6.04,5.9-6.04-3.02,8.18-1.11,7.41-1.11,7.41,12.53-6.37,8.77-19.21,3.25-30.45Z"/>
  <path class="cls-4" d="M80.24,66.66c2.23-.71-.55,3.12-.55,3.12,0,0-1.17-2.58,.55-3.12Z"/>
  <path class="cls-4" d="M80.21,71.7s-.98,5.08-2.7,4.65,2.7-4.65,2.7-4.65Z"/>
  <path class="cls-4" d="M77.78,71.04s-2.34,6.99-6.6,6.44,6.6-6.44,6.6-6.44Z"/>
  <path class="cls-4" d="M42.09,49.73l2.8,.94s1.36,.21,1.3-.63-3.11-1.81-3.11-1.81"/>
  <path class="cls-4" d="M44.13,46.38s9.42,3.51,7.5,6.39c0,0-7.67-6-8.1-5.27"/>
  <path class="cls-4" d="M44.67,45.25s10.27,2.76,12.43,10.57l1.54-.74s-.09,10.63,3.26,9.39c3.35-1.24-1.23-7.85-1.23-7.85l.79-.35s.9,3,2.04,2.71-.51-4.69-.9-4.69-6.33-6.58-7.46-6.06c0,0,1.58-.89,.57-3.21,0,0,3.45,2.38,4.3,1.02s-5.71-4.98-5.71-4.98l.62-.57,4.64,1.3s2.71,4.58,4.02,4.18c0,0,1.81,1.75,3.22,.11s-6.22-6.9-6.22-6.9c0,0-12.88-6.32-13.37-4.63"/>
  <path class="cls-5" d="M57.41,47.23s2.56,1.43,2.39,1.43-2.28-.14-2.39-1.43Z"/>
  <path class="cls-4" d="M61.49,47.23s4.99,1,4.3,3-4.3-3-4.3-3Z"/>
  <path class="cls-4" d="M60.88,49.58s7.34,3.28,6.56,7.05-6.56-7.05-6.56-7.05Z"/>
  <path class="cls-4" d="M38.87,36.35s-3.3,6.07-2.17,13.22c0,0-13.01,2.24-16.55,15,0,0,4.93-21.54,18.72-28.22Z"/>
  <path class="cls-2" d="M31.27,5.73C1.98,23.08,2.2,54.96,2.2,54.96c2.7,50.81,45.02,54.71,45.02,54.71-9.58-.86-32.79-24.19-26.77-46.31,6.02-22.12,18.42-27.01,18.42-27.01-4.41,8.52-1.2,18.18-1.2,18.18,11.94-10.19,9.31-25.05,9.31-25.05-10.93-2.82-9.21-16.7-9.21-16.7,0,0,1.32,11.03,9.03,13.98,.01,0,.02,0,.04,0,.16,0,.29,.07,.37,.16,.01,0,.02,0,.03,.01,0,0,.01,0,.02,0,.11,0,.2,.04,.27,.09,0,0,0,0,0,0,.13,0,.22,.05,.3,.11,.07,0,.14,.03,.2,.06,.05,.01,.1,.02,.13,.04,0,0,.02,0,.02,0,0,0,0,0,0,0,.09,0,.17,.02,.23,.06,0,0,0,0,0,0,.09,0,.16,.02,.23,.06,.01,0,.02,0,.04,0,.08,0,.15,.02,.21,.05,.03,0,.04-.01,.07-.01,.07,0,.13,.02,.19,.04,.01,0,.03,0,.04,0,.05,0,.08,.02,.12,.02,0,0,0,0,0,0,.05,0,.08,.02,.12,.03,0,0,.01,0,.02,0,.01,0,.03,0,.04,0,0,0,.01,0,.02,0,.04,0,.07,.01,.11,.02,0,0,0,0,0,0,.02,0,.03,0,.05,.01,0,0,0,0,0,0,0,0,0,0,0,0,0,0,0,0,0,0,0,0,0,0,0,0,0,0,0,0,0,0h.03s-.02,0-.03,0c0,0,0,0,0,0,0,0,0,0,.01,0,.02,0,.04,0,.06,.01,0,0,.01,0,.02,0,.01,0,.02,0,.03,0,.02,0,.03,0,.05,0,0,0,.01,0,.02,0,0,0,.01,0,.02,0,.02,0,.03-.01,.05-.01,.02,0,.03,0,.04,0,0,0,0,0,0,0,0,0,.01,0,.02,0,.02,0,.04-.01,.07-.01s.05,.01,.07,.01c0,0,.01,0,.02,0,.03,0,.04,.01,.07,.01,.2,0,.4,.02,.61,.02,11.42-.12,19.65-21.74,19.65-21.74V.25C31.88-1.4,31.27,5.73,31.27,5.73Z"/>
  <circle class="cls-1" cx="53" cy="5.05" r="2.4"/>
</svg>